<?xml version="1.0" encoding="utf-8" standalone="no"?>
<!DOCTYPE svg PUBLIC "-//W3C//DTD SVG 1.1//EN"
  "http://www.w3.org/Graphics/SVG/1.1/DTD/svg11.dtd">
<!-- Created with matplotlib (https://matplotlib.org/) -->
<svg height="345.6pt" version="1.1" viewBox="0 0 460.8 345.6" width="460.8pt" xmlns="http://www.w3.org/2000/svg" xmlns:xlink="http://www.w3.org/1999/xlink">
 <metadata>
  <rdf:RDF xmlns:cc="http://creativecommons.org/ns#" xmlns:dc="http://purl.org/dc/elements/1.1/" xmlns:rdf="http://www.w3.org/1999/02/22-rdf-syntax-ns#">
   <cc:Work>
    <dc:type rdf:resource="http://purl.org/dc/dcmitype/StillImage"/>
    <dc:date>2021-02-21T08:35:39.273250</dc:date>
    <dc:format>image/svg+xml</dc:format>
    <dc:creator>
     <cc:Agent>
      <dc:title>Matplotlib v3.3.4, https://matplotlib.org/</dc:title>
     </cc:Agent>
    </dc:creator>
   </cc:Work>
  </rdf:RDF>
 </metadata>
 <defs>
  <style type="text/css">*{stroke-linecap:butt;stroke-linejoin:round;}</style>
 </defs>
 <g id="figure_1">
  <g id="patch_1">
   <path d="M 0 345.6 
L 460.8 345.6 
L 460.8 0 
L 0 0 
z
" style="fill:none;"/>
  </g>
  <g id="axes_1">
   <g id="patch_2">
    <path d="M 57.6 307.584 
L 414.72 307.584 
L 414.72 41.472 
L 57.6 41.472 
z
" style="fill:none;"/>
   </g>
   <g id="PathCollection_1">
    <defs>
     <path d="M 0 3 
C 0.795609 3 1.55874 2.683901 2.12132 2.12132 
C 2.683901 1.55874 3 0.795609 3 0 
C 3 -0.795609 2.683901 -1.55874 2.12132 -2.12132 
C 1.55874 -2.683901 0.795609 -3 0 -3 
C -0.795609 -3 -1.55874 -2.683901 -2.12132 -2.12132 
C -2.683901 -1.55874 -3 -0.795609 -3 0 
C -3 0.795609 -2.683901 1.55874 -2.12132 2.12132 
C -1.55874 2.683901 -0.795609 3 0 3 
z
" id="m21391f0c1c" style="stroke:#ffffff;stroke-width:0.48;"/>
    </defs>
    <g clip-path="url(#p552f7d2d31)">
     <use style="fill:#1f77b4;stroke:#ffffff;stroke-width:0.48;" x="325.44" xlink:href="#m21391f0c1c" y="117.504"/>
     <use style="fill:#1f77b4;stroke:#ffffff;stroke-width:0.48;" x="307.584" xlink:href="#m21391f0c1c" y="136.512"/>
     <use style="fill:#1f77b4;stroke:#ffffff;stroke-width:0.48;" x="289.728" xlink:href="#m21391f0c1c" y="136.512"/>
     <use style="fill:#1f77b4;stroke:#ffffff;stroke-width:0.48;" x="271.872" xlink:href="#m21391f0c1c" y="163.1232"/>
     <use style="fill:#1f77b4;stroke:#ffffff;stroke-width:0.48;" x="191.52" xlink:href="#m21391f0c1c" y="182.1312"/>
     <use style="fill:#1f77b4;stroke:#ffffff;stroke-width:0.48;" x="218.304" xlink:href="#m21391f0c1c" y="166.9248"/>
     <use style="fill:#1f77b4;stroke:#ffffff;stroke-width:0.48;" x="209.376" xlink:href="#m21391f0c1c" y="163.1232"/>
     <use style="fill:#1f77b4;stroke:#ffffff;stroke-width:0.48;" x="155.808" xlink:href="#m21391f0c1c" y="178.3296"/>
     <use style="fill:#1f77b4;stroke:#ffffff;stroke-width:0.48;" x="129.024" xlink:href="#m21391f0c1c" y="193.536"/>
     <use style="fill:#1f77b4;stroke:#ffffff;stroke-width:0.48;" x="30.816" xlink:href="#m21391f0c1c" y="212.544"/>
    </g>
   </g>
   <g id="PathCollection_2">
    <defs>
     <path d="M 0 3 
C 0.795609 3 1.55874 2.683901 2.12132 2.12132 
C 2.683901 1.55874 3 0.795609 3 0 
C 3 -0.795609 2.683901 -1.55874 2.12132 -2.12132 
C 1.55874 -2.683901 0.795609 -3 0 -3 
C -0.795609 -3 -1.55874 -2.683901 -2.12132 -2.12132 
C -2.683901 -1.55874 -3 -0.795609 -3 0 
C -3 0.795609 -2.683901 1.55874 -2.12132 2.12132 
C -1.55874 2.683901 -0.795609 3 0 3 
z
" id="ma49c42b442" style="stroke:#1f77b4;stroke-opacity:0.8;"/>
    </defs>
    <g clip-path="url(#p552f7d2d31)">
     <use style="fill:#1f77b4;fill-opacity:0.8;stroke:#1f77b4;stroke-opacity:0.8;" x="325.44" xlink:href="#ma49c42b442" y="117.504"/>
     <use style="fill:#1f77b4;fill-opacity:0.8;stroke:#1f77b4;stroke-opacity:0.8;" x="307.584" xlink:href="#ma49c42b442" y="136.512"/>
     <use style="fill:#1f77b4;fill-opacity:0.8;stroke:#1f77b4;stroke-opacity:0.8;" x="289.728" xlink:href="#ma49c42b442" y="136.512"/>
     <use style="fill:#1f77b4;fill-opacity:0.8;stroke:#1f77b4;stroke-opacity:0.8;" x="271.872" xlink:href="#ma49c42b442" y="163.1232"/>
     <use style="fill:#1f77b4;fill-opacity:0.8;stroke:#1f77b4;stroke-opacity:0.8;" x="191.52" xlink:href="#ma49c42b442" y="182.1312"/>
     <use style="fill:#1f77b4;fill-opacity:0.8;stroke:#1f77b4;stroke-opacity:0.8;" x="218.304" xlink:href="#ma49c42b442" y="166.9248"/>
     <use style="fill:#1f77b4;fill-opacity:0.8;stroke:#1f77b4;stroke-opacity:0.8;" x="209.376" xlink:href="#ma49c42b442" y="163.1232"/>
     <use style="fill:#1f77b4;fill-opacity:0.8;stroke:#1f77b4;stroke-opacity:0.8;" x="155.808" xlink:href="#ma49c42b442" y="178.3296"/>
     <use style="fill:#1f77b4;fill-opacity:0.8;stroke:#1f77b4;stroke-opacity:0.8;" x="129.024" xlink:href="#ma49c42b442" y="193.536"/>
     <use style="fill:#1f77b4;fill-opacity:0.8;stroke:#1f77b4;stroke-opacity:0.8;" x="30.816" xlink:href="#ma49c42b442" y="212.544"/>
    </g>
   </g>
   <g id="PolyCollection_1">
    <path clip-path="url(#p552f7d2d31)" d="M 30.816 212.29235 
L 30.816 241.430509 
L 33.792 240.243104 
L 36.768 239.055698 
L 39.744 237.868293 
L 42.72 236.680887 
L 45.696 235.493482 
L 48.672 234.306077 
L 51.648 233.118671 
L 54.624 231.931266 
L 57.6 230.743861 
L 60.576 229.556455 
L 63.552 228.36905 
L 66.528 227.181644 
L 69.504 225.994239 
L 72.48 224.806834 
L 75.456 223.619428 
L 78.432 222.432023 
L 81.408 221.244617 
L 84.384 220.057212 
L 87.36 218.869807 
L 90.336 217.682401 
L 93.312 216.494996 
L 96.288 215.30759 
L 99.264 214.120185 
L 102.24 212.93278 
L 105.216 211.745374 
L 108.192 210.557969 
L 111.168 209.370564 
L 114.144 208.183158 
L 117.12 206.995753 
L 120.096 205.808347 
L 123.072 204.620942 
L 126.048 203.427586 
L 129.024 202.233556 
L 132 201.051353 
L 134.976 199.845497 
L 137.952 198.665885 
L 140.928 197.499475 
L 143.904 196.312905 
L 146.88 195.126335 
L 149.856 193.939765 
L 152.832 192.753196 
L 155.808 191.566626 
L 158.784 190.380056 
L 161.76 189.192954 
L 164.736 188.005337 
L 167.712 186.940622 
L 170.688 185.744498 
L 173.664 184.59683 
L 176.64 183.529387 
L 179.616 182.457271 
L 182.592 181.259516 
L 185.568 180.164896 
L 188.544 179.004519 
L 191.52 178.053617 
L 194.496 176.969995 
L 197.472 175.854387 
L 200.448 174.909117 
L 203.424 174.164924 
L 206.4 173.322147 
L 209.376 172.370335 
L 212.352 171.59337 
L 215.328 170.739008 
L 218.304 169.758819 
L 221.28 168.984447 
L 224.256 168.278679 
L 227.232 167.526919 
L 230.208 166.721655 
L 233.184 166.034809 
L 236.16 165.356379 
L 239.136 164.66502 
L 242.112 163.925218 
L 245.088 163.186916 
L 248.064 162.448614 
L 251.04 161.730339 
L 254.016 161.054247 
L 256.992 160.378154 
L 259.968 159.702062 
L 262.944 159.025717 
L 265.92 158.349121 
L 268.896 157.633518 
L 271.872 156.907099 
L 274.848 156.180679 
L 277.824 155.45426 
L 280.8 154.727554 
L 283.776 154.000313 
L 286.752 153.273072 
L 289.728 152.545831 
L 292.704 151.801842 
L 295.68 151.08276 
L 298.656 150.366496 
L 301.632 149.640982 
L 304.608 148.915468 
L 307.584 148.212192 
L 310.56 147.5098 
L 313.536 146.807297 
L 316.512 146.104795 
L 319.488 145.402292 
L 322.464 144.699789 
L 325.44 143.997286 
L 325.44 121.834201 
L 325.44 121.834201 
L 322.464 122.996359 
L 319.488 123.953652 
L 316.512 125.23874 
L 313.536 126.322722 
L 310.56 127.379245 
L 307.584 128.427389 
L 304.608 129.42498 
L 301.632 130.529261 
L 298.656 131.583302 
L 295.68 132.576199 
L 292.704 133.558566 
L 289.728 134.643632 
L 286.752 135.773497 
L 283.776 136.875445 
L 280.8 137.869924 
L 277.824 139.001169 
L 274.848 140.049027 
L 271.872 141.025163 
L 268.896 142.073578 
L 265.92 143.036934 
L 262.944 143.984871 
L 259.968 145.060572 
L 256.992 145.989438 
L 254.016 146.918701 
L 251.04 147.852098 
L 248.064 148.821278 
L 245.088 149.782844 
L 242.112 150.74876 
L 239.136 151.727315 
L 236.16 152.702029 
L 233.184 153.673871 
L 230.208 154.647284 
L 227.232 155.675945 
L 224.256 156.664974 
L 221.28 157.600949 
L 218.304 158.538795 
L 215.328 159.527512 
L 212.352 160.470617 
L 209.376 161.387855 
L 206.4 162.331223 
L 203.424 163.295466 
L 200.448 164.16641 
L 197.472 165.076023 
L 194.496 166.059422 
L 191.52 166.99094 
L 188.544 167.909729 
L 185.568 168.81088 
L 182.592 169.720481 
L 179.616 170.627475 
L 176.64 171.518891 
L 173.664 172.449419 
L 170.688 173.361284 
L 167.712 174.281827 
L 164.736 175.202518 
L 161.76 176.10816 
L 158.784 177.042069 
L 155.808 177.981693 
L 152.832 178.88658 
L 149.856 179.804841 
L 146.88 180.640324 
L 143.904 181.536343 
L 140.928 182.397791 
L 137.952 183.261193 
L 134.976 184.129269 
L 132 184.986557 
L 129.024 185.848492 
L 126.048 186.7997 
L 123.072 187.754638 
L 120.096 188.636304 
L 117.12 189.465838 
L 114.144 190.299609 
L 111.168 191.09111 
L 108.192 191.988811 
L 105.216 192.838023 
L 102.24 193.69275 
L 99.264 194.539412 
L 96.288 195.413389 
L 93.312 196.246017 
L 90.336 197.105499 
L 87.36 197.96042 
L 84.384 198.77075 
L 81.408 199.623643 
L 78.432 200.450838 
L 75.456 201.244387 
L 72.48 202.042159 
L 69.504 202.767594 
L 66.528 203.589695 
L 63.552 204.293659 
L 60.576 205.071711 
L 57.6 205.863466 
L 54.624 206.569377 
L 51.648 207.241857 
L 48.672 207.956125 
L 45.696 208.674125 
L 42.72 209.357453 
L 39.744 210.123221 
L 36.768 210.936962 
L 33.792 211.614628 
L 30.816 212.29235 
z
" style="fill:#1f77b4;fill-opacity:0.15;"/>
   </g>
   <g id="matplotlib.axis_1">
    <g id="xtick_1">
     <g id="line2d_1">
      <defs>
       <path d="M 0 0 
L 0 3.5 
" id="m22e86f526c" style="stroke:#000000;stroke-width:0.8;"/>
      </defs>
      <g>
       <use style="stroke:#000000;stroke-width:0.8;" x="57.6" xlink:href="#m22e86f526c" y="307.584"/>
      </g>
     </g>
     <g id="text_1">
      <text style="font-family:DejaVu Sans;font-size:10px;font-stretch:normal;font-style:normal;font-weight:normal;text-anchor:middle;" transform="rotate(-0, 57.6, 322.182437)" x="57.6" y="322.182437">2700</text>
     </g>
    </g>
    <g id="xtick_2">
     <g id="line2d_2">
      <g>
       <use style="stroke:#000000;stroke-width:0.8;" x="102.24" xlink:href="#m22e86f526c" y="307.584"/>
      </g>
     </g>
     <g id="text_2">
      <text style="font-family:DejaVu Sans;font-size:10px;font-stretch:normal;font-style:normal;font-weight:normal;text-anchor:middle;" transform="rotate(-0, 102.24, 322.182437)" x="102.24" y="322.182437">2750</text>
     </g>
    </g>
    <g id="xtick_3">
     <g id="line2d_3">
      <g>
       <use style="stroke:#000000;stroke-width:0.8;" x="146.88" xlink:href="#m22e86f526c" y="307.584"/>
      </g>
     </g>
     <g id="text_3">
      <text style="font-family:DejaVu Sans;font-size:10px;font-stretch:normal;font-style:normal;font-weight:normal;text-anchor:middle;" transform="rotate(-0, 146.88, 322.182437)" x="146.88" y="322.182437">2800</text>
     </g>
    </g>
    <g id="xtick_4">
     <g id="line2d_4">
      <g>
       <use style="stroke:#000000;stroke-width:0.8;" x="191.52" xlink:href="#m22e86f526c" y="307.584"/>
      </g>
     </g>
     <g id="text_4">
      <text style="font-family:DejaVu Sans;font-size:10px;font-stretch:normal;font-style:normal;font-weight:normal;text-anchor:middle;" transform="rotate(-0, 191.52, 322.182437)" x="191.52" y="322.182437">2850</text>
     </g>
    </g>
    <g id="xtick_5">
     <g id="line2d_5">
      <g>
       <use style="stroke:#000000;stroke-width:0.8;" x="236.16" xlink:href="#m22e86f526c" y="307.584"/>
      </g>
     </g>
     <g id="text_5">
      <text style="font-family:DejaVu Sans;font-size:10px;font-stretch:normal;font-style:normal;font-weight:normal;text-anchor:middle;" transform="rotate(-0, 236.16, 322.182437)" x="236.16" y="322.182437">2900</text>
     </g>
    </g>
    <g id="xtick_6">
     <g id="line2d_6">
      <g>
       <use style="stroke:#000000;stroke-width:0.8;" x="280.8" xlink:href="#m22e86f526c" y="307.584"/>
      </g>
     </g>
     <g id="text_6">
      <text style="font-family:DejaVu Sans;font-size:10px;font-stretch:normal;font-style:normal;font-weight:normal;text-anchor:middle;" transform="rotate(-0, 280.8, 322.182437)" x="280.8" y="322.182437">2950</text>
     </g>
    </g>
    <g id="xtick_7">
     <g id="line2d_7">
      <g>
       <use style="stroke:#000000;stroke-width:0.8;" x="325.44" xlink:href="#m22e86f526c" y="307.584"/>
      </g>
     </g>
     <g id="text_7">
      <text style="font-family:DejaVu Sans;font-size:10px;font-stretch:normal;font-style:normal;font-weight:normal;text-anchor:middle;" transform="rotate(-0, 325.44, 322.182437)" x="325.44" y="322.182437">3000</text>
     </g>
    </g>
    <g id="xtick_8">
     <g id="line2d_8">
      <g>
       <use style="stroke:#000000;stroke-width:0.8;" x="370.08" xlink:href="#m22e86f526c" y="307.584"/>
      </g>
     </g>
     <g id="text_8">
      <text style="font-family:DejaVu Sans;font-size:10px;font-stretch:normal;font-style:normal;font-weight:normal;text-anchor:middle;" transform="rotate(-0, 370.08, 322.182437)" x="370.08" y="322.182437">3050</text>
     </g>
    </g>
    <g id="xtick_9">
     <g id="line2d_9">
      <g>
       <use style="stroke:#000000;stroke-width:0.8;" x="414.72" xlink:href="#m22e86f526c" y="307.584"/>
      </g>
     </g>
     <g id="text_9">
      <text style="font-family:DejaVu Sans;font-size:10px;font-stretch:normal;font-style:normal;font-weight:normal;text-anchor:middle;" transform="rotate(-0, 414.72, 322.182437)" x="414.72" y="322.182437">3100</text>
     </g>
    </g>
    <g id="text_10">
     <text style="font-family:DejaVu Sans;font-size:10px;font-stretch:normal;font-style:normal;font-weight:normal;text-anchor:middle;" transform="rotate(-0, 236.16, 335.860562)" x="236.16" y="335.860562">Total Sales</text>
    </g>
   </g>
   <g id="matplotlib.axis_2">
    <g id="ytick_1">
     <g id="line2d_10">
      <defs>
       <path d="M 0 0 
L -3.5 0 
" id="m920a8c3b1c" style="stroke:#000000;stroke-width:0.8;"/>
      </defs>
      <g>
       <use style="stroke:#000000;stroke-width:0.8;" x="57.6" xlink:href="#m920a8c3b1c" y="307.584"/>
      </g>
     </g>
     <g id="text_11">
      <text style="font-family:DejaVu Sans;font-size:10px;font-stretch:normal;font-style:normal;font-weight:normal;text-anchor:end;" transform="rotate(-0, 50.6, 311.383219)" x="50.6" y="311.383219">400</text>
     </g>
    </g>
    <g id="ytick_2">
     <g id="line2d_11">
      <g>
       <use style="stroke:#000000;stroke-width:0.8;" x="57.6" xlink:href="#m920a8c3b1c" y="269.568"/>
      </g>
     </g>
     <g id="text_12">
      <text style="font-family:DejaVu Sans;font-size:10px;font-stretch:normal;font-style:normal;font-weight:normal;text-anchor:end;" transform="rotate(-0, 50.6, 273.367219)" x="50.6" y="273.367219">410</text>
     </g>
    </g>
    <g id="ytick_3">
     <g id="line2d_12">
      <g>
       <use style="stroke:#000000;stroke-width:0.8;" x="57.6" xlink:href="#m920a8c3b1c" y="231.552"/>
      </g>
     </g>
     <g id="text_13">
      <text style="font-family:DejaVu Sans;font-size:10px;font-stretch:normal;font-style:normal;font-weight:normal;text-anchor:end;" transform="rotate(-0, 50.6, 235.351219)" x="50.6" y="235.351219">420</text>
     </g>
    </g>
    <g id="ytick_4">
     <g id="line2d_13">
      <g>
       <use style="stroke:#000000;stroke-width:0.8;" x="57.6" xlink:href="#m920a8c3b1c" y="193.536"/>
      </g>
     </g>
     <g id="text_14">
      <text style="font-family:DejaVu Sans;font-size:10px;font-stretch:normal;font-style:normal;font-weight:normal;text-anchor:end;" transform="rotate(-0, 50.6, 197.335219)" x="50.6" y="197.335219">430</text>
     </g>
    </g>
    <g id="ytick_5">
     <g id="line2d_14">
      <g>
       <use style="stroke:#000000;stroke-width:0.8;" x="57.6" xlink:href="#m920a8c3b1c" y="155.52"/>
      </g>
     </g>
     <g id="text_15">
      <text style="font-family:DejaVu Sans;font-size:10px;font-stretch:normal;font-style:normal;font-weight:normal;text-anchor:end;" transform="rotate(-0, 50.6, 159.319219)" x="50.6" y="159.319219">440</text>
     </g>
    </g>
    <g id="ytick_6">
     <g id="line2d_15">
      <g>
       <use style="stroke:#000000;stroke-width:0.8;" x="57.6" xlink:href="#m920a8c3b1c" y="117.504"/>
      </g>
     </g>
     <g id="text_16">
      <text style="font-family:DejaVu Sans;font-size:10px;font-stretch:normal;font-style:normal;font-weight:normal;text-anchor:end;" transform="rotate(-0, 50.6, 121.303219)" x="50.6" y="121.303219">450</text>
     </g>
    </g>
    <g id="ytick_7">
     <g id="line2d_16">
      <g>
       <use style="stroke:#000000;stroke-width:0.8;" x="57.6" xlink:href="#m920a8c3b1c" y="79.488"/>
      </g>
     </g>
     <g id="text_17">
      <text style="font-family:DejaVu Sans;font-size:10px;font-stretch:normal;font-style:normal;font-weight:normal;text-anchor:end;" transform="rotate(-0, 50.6, 83.287219)" x="50.6" y="83.287219">460</text>
     </g>
    </g>
    <g id="ytick_8">
     <g id="line2d_17">
      <g>
       <use style="stroke:#000000;stroke-width:0.8;" x="57.6" xlink:href="#m920a8c3b1c" y="41.472"/>
      </g>
     </g>
     <g id="text_18">
      <text style="font-family:DejaVu Sans;font-size:10px;font-stretch:normal;font-style:normal;font-weight:normal;text-anchor:end;" transform="rotate(-0, 50.6, 45.271219)" x="50.6" y="45.271219">470</text>
     </g>
    </g>
    <g id="text_19">
     <text style="font-family:DejaVu Sans;font-size:10px;font-stretch:normal;font-style:normal;font-weight:normal;text-anchor:middle;" transform="rotate(-90, 25.432813, 174.528)" x="25.432813" y="174.528">Marketing Costs</text>
    </g>
   </g>
   <g id="line2d_18">
    <path clip-path="url(#p552f7d2d31)" d="M 30.816 219.700096 
L 33.792 218.806695 
L 36.768 217.913295 
L 39.744 217.019895 
L 42.72 216.126495 
L 45.696 215.233094 
L 48.672 214.339694 
L 51.648 213.446294 
L 54.624 212.552894 
L 57.6 211.659493 
L 60.576 210.766093 
L 63.552 209.872693 
L 66.528 208.979293 
L 69.504 208.085892 
L 72.48 207.192492 
L 75.456 206.299092 
L 78.432 205.405692 
L 81.408 204.512291 
L 84.384 203.618891 
L 87.36 202.725491 
L 90.336 201.832091 
L 93.312 200.93869 
L 96.288 200.04529 
L 99.264 199.15189 
L 102.24 198.258489 
L 105.216 197.365089 
L 108.192 196.471689 
L 111.168 195.578289 
L 114.144 194.684888 
L 117.12 193.791488 
L 120.096 192.898088 
L 123.072 192.004688 
L 126.048 191.111287 
L 129.024 190.217887 
L 132 189.324487 
L 134.976 188.431087 
L 137.952 187.537686 
L 140.928 186.644286 
L 143.904 185.750886 
L 146.88 184.857486 
L 149.856 183.964085 
L 152.832 183.070685 
L 155.808 182.177285 
L 158.784 181.283885 
L 161.76 180.390484 
L 164.736 179.497084 
L 167.712 178.603684 
L 170.688 177.710284 
L 173.664 176.816883 
L 176.64 175.923483 
L 179.616 175.030083 
L 182.592 174.136683 
L 185.568 173.243282 
L 188.544 172.349882 
L 191.52 171.456482 
L 194.496 170.563082 
L 197.472 169.669681 
L 200.448 168.776281 
L 203.424 167.882881 
L 206.4 166.989481 
L 209.376 166.09608 
L 212.352 165.20268 
L 215.328 164.30928 
L 218.304 163.41588 
L 221.28 162.522479 
L 224.256 161.629079 
L 227.232 160.735679 
L 230.208 159.842279 
L 233.184 158.948878 
L 236.16 158.055478 
L 239.136 157.162078 
L 242.112 156.268677 
L 245.088 155.375277 
L 248.064 154.481877 
L 251.04 153.588477 
L 254.016 152.695076 
L 256.992 151.801676 
L 259.968 150.908276 
L 262.944 150.014876 
L 265.92 149.121475 
L 268.896 148.228075 
L 271.872 147.334675 
L 274.848 146.441275 
L 277.824 145.547874 
L 280.8 144.654474 
L 283.776 143.761074 
L 286.752 142.867674 
L 289.728 141.974273 
L 292.704 141.080873 
L 295.68 140.187473 
L 298.656 139.294073 
L 301.632 138.400672 
L 304.608 137.507272 
L 307.584 136.613872 
L 310.56 135.720472 
L 313.536 134.827071 
L 316.512 133.933671 
L 319.488 133.040271 
L 322.464 132.146871 
L 325.44 131.25347 
" style="fill:none;stroke:#1f77b4;stroke-linecap:square;stroke-width:2.25;"/>
   </g>
   <g id="patch_3">
    <path d="M 57.6 307.584 
L 57.6 41.472 
" style="fill:none;stroke:#000000;stroke-linecap:square;stroke-linejoin:miter;stroke-width:0.8;"/>
   </g>
   <g id="patch_4">
    <path d="M 414.72 307.584 
L 414.72 41.472 
" style="fill:none;stroke:#000000;stroke-linecap:square;stroke-linejoin:miter;stroke-width:0.8;"/>
   </g>
   <g id="patch_5">
    <path d="M 57.6 307.584 
L 414.72 307.584 
" style="fill:none;stroke:#000000;stroke-linecap:square;stroke-linejoin:miter;stroke-width:0.8;"/>
   </g>
   <g id="patch_6">
    <path d="M 57.6 41.472 
L 414.72 41.472 
" style="fill:none;stroke:#000000;stroke-linecap:square;stroke-linejoin:miter;stroke-width:0.8;"/>
   </g>
  </g>
 </g>
 <defs>
  <clipPath id="p552f7d2d31">
   <rect height="266.112" width="357.12" x="57.6" y="41.472"/>
  </clipPath>
 </defs>
</svg>
